<svg width="50" height="50" viewBox="0 0 50 50" fill="none" xmlns="http://www.w3.org/2000/svg">
<path d="M21.5004 8.00012C20.8485 8.00012 20.2988 8.41888 20.0921 9.00014H10.5002C10.2242 9.00014 10.0002 9.22414 10.0002 9.50015C10.0002 9.77615 10.2242 10.0002 10.5002 10.0002H39.5006C39.7767 10.0002 40.0007 9.77615 40.0007 9.50015C40.0007 9.22414 39.7767 9.00014 39.5006 9.00014H29.9087C29.702 8.41888 29.1524 8.00012 28.5005 8.00012H21.5004ZM12.0002 11.0002V37.2389C12.0002 39.3119 13.689 41.0006 15.762 41.0006H34.2388C36.3119 41.0006 38.0006 39.3119 38.0006 37.2389V11.0002H12.0002ZM16.5003 15.0002C16.7073 15.0002 16.8753 15.1682 16.8753 15.3752V34.6255C16.8753 34.8325 16.7073 35.0005 16.5003 35.0005C16.2933 35.0005 16.1253 34.8325 16.1253 34.6255V15.3752C16.1253 15.1682 16.2933 15.0002 16.5003 15.0002ZM25.0004 15.0002C25.2764 15.0002 25.5004 15.2242 25.5004 15.5002V34.5005C25.5004 34.7765 25.2764 35.0005 25.0004 35.0005C24.7244 35.0005 24.5004 34.7765 24.5004 34.5005V15.5002C24.5004 15.2242 24.7244 15.0002 25.0004 15.0002ZM33.5006 15.0002C33.7076 15.0002 33.8756 15.1682 33.8756 15.3752V34.6255C33.8756 34.8325 33.7076 35.0005 33.5006 35.0005C33.2936 35.0005 33.1255 34.8325 33.1255 34.6255V15.3752C33.1255 15.1682 33.2936 15.0002 33.5006 15.0002Z" fill="#081C15"/>
</svg>
