<svg width="50" height="50" viewBox="0 0 40 35" fill="none" xmlns="http://www.w3.org/2000/svg">
<path d="M19.9843 35C10.8091 35 3.48782 28.0242 0 17.5C3.51925 6.97581 10.8405 0 19.9843 0C29.128 0 36.4808 6.97581 40 17.5C36.4808 28.0242 29.128 35 19.9843 35ZM19.9843 30.8065C27.2427 30.8065 33.4957 25.3629 36.4179 17.5C33.4957 9.6371 27.2427 4.19355 19.9843 4.19355C12.7573 4.19355 6.50432 9.6371 3.58209 17.5C6.4729 25.3629 12.7258 30.8065 19.9843 30.8065ZM12.3802 17.5C12.3802 12.0968 15.7738 7.74194 19.9529 7.74194C24.1634 7.74194 27.557 12.1371 27.557 17.5C27.557 22.9032 24.132 27.2581 19.9529 27.2581C15.7738 27.2581 12.3802 22.8629 12.3802 17.5ZM20.4242 15.0403C20.4242 16.7339 21.4611 18.1048 22.8123 18.1048C24.1006 18.1048 25.1689 16.7339 25.1689 15.0403C25.1689 13.3871 24.132 12.0161 22.8123 12.0161C21.4925 12.0161 20.4242 13.3468 20.4242 15.0403Z" fill="#081C15"/>
</svg>
